<mxfile host="65bd71144e">
    <diagram id="zMYqGMBJ4yub3NK4iNBq" name="Page-1">
        <mxGraphModel dx="1306" dy="645" grid="1" gridSize="10" guides="1" tooltips="1" connect="1" arrows="1" fold="1" page="1" pageScale="1" pageWidth="850" pageHeight="1100" math="0" shadow="0">
            <root>
                <mxCell id="0"/>
                <mxCell id="1" parent="0"/>
                <mxCell id="124" value="Ambiente" style="text;strokeColor=none;fillColor=none;spacingLeft=4;spacingRight=4;overflow=hidden;rotatable=0;points=[[0,0.5],[1,0.5]];portConstraint=eastwest;fontSize=12;" parent="1" vertex="1">
                    <mxGeometry x="20" y="100" width="70" height="30" as="geometry"/>
                </mxCell>
                <mxCell id="125" value="Usuário" style="text;strokeColor=none;fillColor=none;spacingLeft=4;spacingRight=4;overflow=hidden;rotatable=0;points=[[0,0.5],[1,0.5]];portConstraint=eastwest;fontSize=12;" parent="1" vertex="1">
                    <mxGeometry x="20" y="10" width="70" height="30" as="geometry"/>
                </mxCell>
                <mxCell id="130" value="n_telefone" style="whiteSpace=wrap;html=1;align=center;" parent="1" vertex="1">
                    <mxGeometry x="21" y="30" width="100" height="40" as="geometry"/>
                </mxCell>
                <mxCell id="134" value="email_adm" style="whiteSpace=wrap;html=1;align=center;" parent="1" vertex="1">
                    <mxGeometry x="20" y="120" width="100" height="40" as="geometry"/>
                </mxCell>
                <mxCell id="162" style="edgeStyle=none;html=1;entryX=0.495;entryY=0.918;entryDx=0;entryDy=0;entryPerimeter=0;" parent="1" source="135" target="138" edge="1">
                    <mxGeometry relative="1" as="geometry">
                        <Array as="points">
                            <mxPoint x="160" y="100"/>
                        </Array>
                    </mxGeometry>
                </mxCell>
                <mxCell id="135" value="Tel_Adm" style="whiteSpace=wrap;html=1;align=center;" parent="1" vertex="1">
                    <mxGeometry x="120" y="120" width="100" height="40" as="geometry"/>
                </mxCell>
                <mxCell id="136" value="Nome" style="whiteSpace=wrap;html=1;align=center;" parent="1" vertex="1">
                    <mxGeometry x="21" y="220" width="100" height="40" as="geometry"/>
                </mxCell>
                <mxCell id="137" value="Data Criação" style="whiteSpace=wrap;html=1;align=center;" parent="1" vertex="1">
                    <mxGeometry x="220" y="120" width="100" height="40" as="geometry"/>
                </mxCell>
                <mxCell id="138" value="" style="line;strokeWidth=1;rotatable=0;dashed=0;labelPosition=right;align=left;verticalAlign=middle;spacingTop=0;spacingLeft=6;points=[];portConstraint=eastwest;" parent="1" vertex="1">
                    <mxGeometry x="20" y="60" width="100" height="10" as="geometry"/>
                </mxCell>
                <mxCell id="139" value="A_Nome" style="whiteSpace=wrap;html=1;align=center;" parent="1" vertex="1">
                    <mxGeometry x="320" y="120" width="100" height="40" as="geometry"/>
                </mxCell>
                <mxCell id="140" value="Data_Inicio" style="whiteSpace=wrap;html=1;align=center;" parent="1" vertex="1">
                    <mxGeometry x="220" y="220" width="100" height="40" as="geometry"/>
                </mxCell>
                <mxCell id="141" value="Id_Tarefa" style="whiteSpace=wrap;html=1;align=center;" parent="1" vertex="1">
                    <mxGeometry x="120" y="220" width="100" height="40" as="geometry"/>
                </mxCell>
                <mxCell id="143" value="Tarefa" style="text;strokeColor=none;fillColor=none;spacingLeft=4;spacingRight=4;overflow=hidden;rotatable=0;points=[[0,0.5],[1,0.5]];portConstraint=eastwest;fontSize=12;" parent="1" vertex="1">
                    <mxGeometry x="20" y="200" width="110" height="30" as="geometry"/>
                </mxCell>
                <mxCell id="144" value="" style="line;strokeWidth=1;rotatable=0;dashed=0;labelPosition=right;align=left;verticalAlign=middle;spacingTop=0;spacingLeft=6;points=[];portConstraint=eastwest;" parent="1" vertex="1">
                    <mxGeometry x="120" y="250" width="100" height="10" as="geometry"/>
                </mxCell>
                <mxCell id="145" value="id_atribuição" style="whiteSpace=wrap;html=1;align=center;" parent="1" vertex="1">
                    <mxGeometry x="21" y="310" width="100" height="40" as="geometry"/>
                </mxCell>
                <mxCell id="146" value="n_pessoa" style="whiteSpace=wrap;html=1;align=center;" parent="1" vertex="1">
                    <mxGeometry x="221" y="310" width="100" height="40" as="geometry"/>
                </mxCell>
                <mxCell id="163" style="edgeStyle=none;html=1;" parent="1" source="147" edge="1">
                    <mxGeometry relative="1" as="geometry">
                        <mxPoint x="171" y="340" as="targetPoint"/>
                    </mxGeometry>
                </mxCell>
                <mxCell id="147" value="Tarefa_at" style="whiteSpace=wrap;html=1;align=center;" parent="1" vertex="1">
                    <mxGeometry x="121" y="310" width="100" height="40" as="geometry"/>
                </mxCell>
                <mxCell id="148" value="Atribui" style="text;strokeColor=none;fillColor=none;spacingLeft=4;spacingRight=4;overflow=hidden;rotatable=0;points=[[0,0.5],[1,0.5]];portConstraint=eastwest;fontSize=12;" parent="1" vertex="1">
                    <mxGeometry x="21" y="290" width="170" height="30" as="geometry"/>
                </mxCell>
                <mxCell id="150" value="Qtd_Membros" style="whiteSpace=wrap;html=1;align=center;" parent="1" vertex="1">
                    <mxGeometry x="420" y="120" width="100" height="40" as="geometry"/>
                </mxCell>
                <mxCell id="154" value="Estado" style="whiteSpace=wrap;html=1;align=center;" parent="1" vertex="1">
                    <mxGeometry x="421" y="220" width="100" height="40" as="geometry"/>
                </mxCell>
                <mxCell id="155" value="data_conclusão" style="whiteSpace=wrap;html=1;align=center;" parent="1" vertex="1">
                    <mxGeometry x="321" y="220" width="100" height="40" as="geometry"/>
                </mxCell>
                <mxCell id="157" value="Descrição" style="whiteSpace=wrap;html=1;align=center;" parent="1" vertex="1">
                    <mxGeometry x="521" y="220" width="100" height="40" as="geometry"/>
                </mxCell>
                <mxCell id="158" value="Tempo Gasto" style="whiteSpace=wrap;html=1;align=center;" parent="1" vertex="1">
                    <mxGeometry x="721" y="220" width="100" height="40" as="geometry"/>
                </mxCell>
                <mxCell id="159" value="Prazo" style="whiteSpace=wrap;html=1;align=center;" parent="1" vertex="1">
                    <mxGeometry x="621" y="220" width="100" height="40" as="geometry"/>
                </mxCell>
                <mxCell id="167" value="" style="endArrow=classic;html=1;entryX=0.48;entryY=1.135;entryDx=0;entryDy=0;entryPerimeter=0;exitX=0.473;exitY=1.007;exitDx=0;exitDy=0;exitPerimeter=0;" parent="1" source="147" target="144" edge="1">
                    <mxGeometry width="50" height="50" relative="1" as="geometry">
                        <mxPoint x="170" y="350" as="sourcePoint"/>
                        <mxPoint x="550" y="280" as="targetPoint"/>
                        <Array as="points">
                            <mxPoint x="168" y="370"/>
                            <mxPoint x="600" y="370"/>
                            <mxPoint x="600" y="290"/>
                            <mxPoint x="170" y="290"/>
                        </Array>
                    </mxGeometry>
                </mxCell>
                <mxCell id="168" value="" style="endArrow=classic;html=1;entryX=0.46;entryY=0.914;entryDx=0;entryDy=0;entryPerimeter=0;exitX=0.5;exitY=1;exitDx=0;exitDy=0;" parent="1" source="146" target="138" edge="1">
                    <mxGeometry width="50" height="50" relative="1" as="geometry">
                        <mxPoint x="270" y="400" as="sourcePoint"/>
                        <mxPoint x="320" y="220" as="targetPoint"/>
                        <Array as="points">
                            <mxPoint x="270" y="400"/>
                            <mxPoint x="1030" y="400"/>
                            <mxPoint x="1030" y="90"/>
                            <mxPoint x="66" y="90"/>
                        </Array>
                    </mxGeometry>
                </mxCell>
                <mxCell id="169" value="Nome_Membros" style="whiteSpace=wrap;html=1;align=center;" parent="1" vertex="1">
                    <mxGeometry x="520" y="120" width="100" height="40" as="geometry"/>
                </mxCell>
                <mxCell id="132" value="Nome" style="whiteSpace=wrap;html=1;align=center;" parent="1" vertex="1">
                    <mxGeometry x="120" y="30" width="100" height="40" as="geometry"/>
                </mxCell>
                <mxCell id="174" value="Id_Ambiente" style="whiteSpace=wrap;html=1;align=center;" parent="1" vertex="1">
                    <mxGeometry x="620" y="120" width="100" height="40" as="geometry"/>
                </mxCell>
                <mxCell id="175" value="" style="line;strokeWidth=1;rotatable=0;dashed=0;labelPosition=right;align=left;verticalAlign=middle;spacingTop=0;spacingLeft=6;points=[];portConstraint=eastwest;" parent="1" vertex="1">
                    <mxGeometry x="620" y="150" width="100" height="10" as="geometry"/>
                </mxCell>
                <mxCell id="179" value="" style="line;strokeWidth=1;rotatable=0;dashed=0;labelPosition=right;align=left;verticalAlign=middle;spacingTop=0;spacingLeft=6;points=[];portConstraint=eastwest;" parent="1" vertex="1">
                    <mxGeometry x="320" y="340" width="100" height="10" as="geometry"/>
                </mxCell>
                <mxCell id="180" value="Amb_Atribuído" style="whiteSpace=wrap;html=1;align=center;" parent="1" vertex="1">
                    <mxGeometry x="320" y="310" width="100" height="40" as="geometry"/>
                </mxCell>
                <mxCell id="182" value="" style="endArrow=classic;html=1;exitX=1;exitY=0.5;exitDx=0;exitDy=0;entryX=1;entryY=0.5;entryDx=0;entryDy=0;" parent="1" source="180" target="174" edge="1">
                    <mxGeometry width="50" height="50" relative="1" as="geometry">
                        <mxPoint x="645" y="350" as="sourcePoint"/>
                        <mxPoint x="695" y="300" as="targetPoint"/>
                        <Array as="points">
                            <mxPoint x="1000" y="330"/>
                            <mxPoint x="1000" y="140"/>
                        </Array>
                    </mxGeometry>
                </mxCell>
                <mxCell id="183" value="" style="line;strokeWidth=1;rotatable=0;dashed=0;labelPosition=right;align=left;verticalAlign=middle;spacingTop=0;spacingLeft=6;points=[];portConstraint=eastwest;" parent="1" vertex="1">
                    <mxGeometry x="20" y="340" width="100" height="10" as="geometry"/>
                </mxCell>
                <mxCell id="184" value="email" style="whiteSpace=wrap;html=1;align=center;" parent="1" vertex="1">
                    <mxGeometry x="220" y="30" width="100" height="40" as="geometry"/>
                </mxCell>
            </root>
        </mxGraphModel>
    </diagram>
</mxfile>